<svg viewBox="0 0 202.15 184.39" fill="#f0c478" 
    xmlns="http://www.w3.org/2000/svg"><g><g><path d="M184.71,83.77c1.46-1.64,7.5,3.47,5.22,6.52-3.66,4.91-9.48-3.49-11.16-6a13,13,0,0,0-2.69-2.93,12.6,12.6,0,0,0-6.9-3.09c-5.86-.63-16.47,5.21-16.7,11.74-.15,4.12,4,6.72,6,9.89,3.38,5.21,5.33,12.1,5.89,18.27A59.83,59.83,0,0,1,157,152.82c-5.71,9.83-20.17,23.05-30.78,11a62,62,0,0,0,12.29-16.34A56.52,56.52,0,0,0,144.51,130a30.62,30.62,0,0,0-1.11-15.07,14.82,14.82,0,0,0-8.57-9.12,22.32,22.32,0,0,0-22.77,3,27.58,27.58,0,0,0-7.69,9.76,36,36,0,0,0-3.49,13.88,58.45,58.45,0,0,0,1.27,15.63,49.88,49.88,0,0,0,7.3,17.05,21.69,21.69,0,0,1-5.79,4,9,9,0,0,1-6.11.55,16.83,16.83,0,0,1-9.73-6.24l-.1-.26-.25-.23a22.28,22.28,0,0,1-3.39-8.37c-.95-6-.66-14.27,1-23.31A160.87,160.87,0,0,1,90.32,112q.45-1.21.93-2.41C98.42,91.77,107.22,72,112,61.33a167.6,167.6,0,0,0,24.85-.57C185.12,55.31,179.12,0,179.12,0,155.83,29.7,107.18,24.58,74.27,32.5,44.48,39.66,8.43,66.63,1.59,99.88c-7.91,38.49,16.21,40.81,16.21,40.81l23.31-19.35c-29.7-3.54-29.7-39.24-7.46-54.51,10.16-7,25.33-8,42.12-7.48-4.47,15.12-16,55.72-17.44,76.68-1.73,25.22,4.08,43.11,30.67,47.61a50.63,50.63,0,0,0,6.2.27h.06q10-.83,20.68-10.55,5.55,7,11.82,9.12c19.22,6.57,34.93-4.79,44.64-20.2A106.86,106.86,0,0,0,181,144.92q.87-2.16,1.61-4.36c3.39-9.81,5.94-21.86,4.34-33.8a14.35,14.35,0,0,0,3.28-.91c6.82-2.76,11.28-8.17,11.84-15.56C202.83,80.89,192.27,75.23,184.71,83.77ZM119.6,151.31a.47.47,0,0,0-.16-.32,26.09,26.09,0,0,1-1.83-5.8c-.94-5-2.14-13.91.84-18.36h0c2.37-3.49,6.9-4,9.11,0,1.88,3.38-.84,9-2.11,12.29A97.56,97.56,0,0,1,119.6,151.31Z"></path></g></g></svg>